# xmcd
#
# Track frame offsets:
#	150
#	3787
#	28220
#	49665
#	68771
#	85117
#	113580
#	138129
#	157812
#	184913
#
# Disc length: 2762 seconds
# Revision: 0
# Processed by: cddbd v1.5.2PL0 Copyright (c) Steve Scherf et al.
# Submitted via: dBpowerAMP V12.0
#
DISCID=6f0ac80a
DTITLE=Shadows Fall - Of One Blood (Remastered)
DYEAR=2008
DGENRE=Metal
TTITLE0=Pain Glass Vision
TTITLE1=Crushing Belial
TTITLE2=Of One Blood
TTITLE3=The First Noble Truth
TTITLE4=Fleshold
TTITLE5=Root Bound Apollo
TTITLE6=Revel in My Loss
TTITLE7=Montauk
TTITLE8=To Ashes
TTITLE9=Serenity
EXTD=
EXTT0=
EXTT1=
EXTT2=
EXTT3=
EXTT4=
EXTT5=
EXTT6=
EXTT7=
EXTT8=
EXTT9=
PLAYORDER=
